<svg width="33" height="33" viewBox="0 0 33 33" fill="none" xmlns="http://www.w3.org/2000/svg">
<g id="mdi:facebook">
<path id="Vector" d="M16.5 2.80493C8.9375 2.80493 2.75 8.97868 2.75 16.5824C2.75 23.4574 7.7825 29.1637 14.355 30.1949V20.5699H10.8625V16.5824H14.355V13.5437C14.355 10.0924 16.4038 8.19493 19.5525 8.19493C21.0513 8.19493 22.6188 8.45618 22.6188 8.45618V11.8524H20.8863C19.1813 11.8524 18.645 12.9112 18.645 13.9974V16.5824H22.4675L21.8488 20.5699H18.645V30.1949C21.8851 29.6832 24.8355 28.03 26.9637 25.5338C29.0918 23.0375 30.2574 19.8627 30.25 16.5824C30.25 8.97868 24.0625 2.80493 16.5 2.80493Z" fill="#444092"/>
</g>
</svg>
